<svg width="19" height="21" fill="none" xmlns="http://www.w3.org/2000/svg"><path opacity=".3" d="M9.5 19.0909c-5.24685 0-9.5-4.2744-9.5-9.54544v1.90904C0 16.7255 4.25315 21 9.5 21c5.2459 0 9.5-4.2745 9.5-9.5455V9.54546c0 5.27104-4.2541 9.54544-9.5 9.54544z" fill="#ABABAB"/><path d="M9.5 19.0909c5.2467 0 9.5-4.2736 9.5-9.54545C19 4.27365 14.7467 0 9.5 0 4.25329 0 0 4.27365 0 9.54545c0 5.27185 4.25329 9.54545 9.5 9.54545z" fill="#fff"/><path d="M9.5001 11.4545c1.0493 0 1.9-.8547 1.9-1.90904 0-1.05436-.8507-1.90909-1.9-1.90909-1.04934 0-1.9.85473-1.9 1.90909 0 1.05434.85066 1.90904 1.9 1.90904z" fill="#ABABAB"/></svg>