<svg width="17" height="17" fill="none" xmlns="http://www.w3.org/2000/svg"><path d="M10.95 1.14409c1.685-.496 2.984.27 3.577 1.179.673-.231 1.331-.481 2.011-.708a2.34493 2.34493 0 01-.857 1.768c.685.17 1.304-.491 1.304-.491-.169 1-1.006 1.788-1.563 2.024-.231 6.75001-3.175 11.21701-10.07702 11.08201h-.446c-.41 0-4.164-.46-4.898-1.887 2.271.196 3.893-.422 4.693-1.177-.96-.3-2.679-.477-2.979-2.95001.349.10601.564.22801 1.19.11901-1.2-.85601-2.531-1.57301-2.457-3.77301.285.328 1.067.536 1.34.472-.703-.241-1.97-3.36-.894-4.952 1.818 1.854 3.735 3.606 7.152 3.773.208-2.293 1.137-3.83 2.90402-4.479z" fill="#fff"/></svg>